<svg xmlns="http://www.w3.org/2000/svg" viewBox="0 0 128 128" role="img" aria-label="ХПК CRM">
  <defs>
    <linearGradient id="bg" x1="18" y1="10" x2="112" y2="120" gradientUnits="userSpaceOnUse">
      <stop stop-color="#fff4c2"/>
      <stop offset="0.46" stop-color="#f0b429"/>
      <stop offset="1" stop-color="#2d7ff0"/>
    </linearGradient>
    <linearGradient id="glass" x1="24" y1="18" x2="108" y2="112" gradientUnits="userSpaceOnUse">
      <stop stop-color="#ffffff" stop-opacity="0.88"/>
      <stop offset="1" stop-color="#ffffff" stop-opacity="0.34"/>
    </linearGradient>
    <filter id="shadow" x="-20%" y="-20%" width="140%" height="150%" color-interpolation-filters="sRGB">
      <feDropShadow dx="0" dy="12" stdDeviation="12" flood-color="#1b2f4d" flood-opacity="0.24"/>
    </filter>
  </defs>
  <rect width="128" height="128" rx="30" fill="url(#bg)"/>
  <path d="M18 35C35 20 63 17 89 26c16 6 27 17 33 30v42c-16 12-38 18-65 13-24-5-41-17-51-32V45c3-4 7-7 12-10Z" fill="url(#glass)"/>
  <g filter="url(#shadow)">
    <rect x="24" y="34" width="80" height="60" rx="18" fill="#142033" fill-opacity="0.88"/>
    <path d="M39 52h10v26H39V52Zm20 0h10v9h13v-9h10v26H82v-9H69v9H59V52Z" fill="#f8fbff"/>
    <path d="M35 94h58" stroke="#f0b429" stroke-width="8" stroke-linecap="round"/>
  </g>
</svg>
